<svg width="684" height="376" xmlns="http://www.w3.org/2000/svg" xml:space="preserve" version="1.1">

 <g>
  <title>Layer 1</title>
  <path stroke="null" id="svg_1" fill="#2a2c45" d="m203.60005,150.46971c15.68497,0 28.39994,-13.29053 28.39994,-29.68506c0,-14.08315 -9.38609,-25.86749 -21.97422,-28.9122c-0.25747,-29.79824 -23.44375,-53.87245 -52.01315,-53.87245c-19.61437,0 -36.69015,11.34851 -45.55306,28.10485c-2.69672,-1.21983 -5.66912,-1.8989 -8.79416,-1.8989c-11.25781,0 -20.54903,8.77448 -21.97147,20.13592c-14.64891,3.03609 -25.69394,16.53933 -25.69394,32.74235c0,18.43859 14.30034,33.38549 31.94022,33.38549c4.91356,0 112.29349,0 115.65984,0z"/>
  <g id="svg_2"/>
  <g id="svg_3"/>
  <g id="svg_4"/>
  <g id="svg_5"/>
  <g id="svg_6"/>
  <g id="svg_7"/>
  <g id="svg_8"/>
  <g id="svg_9"/>
  <g id="svg_10"/>
  <g id="svg_11"/>
  <g id="svg_12"/>
  <g id="svg_13"/>
  <g id="svg_14"/>
  <g id="svg_15"/>
  <g id="svg_16"/>
  <path stroke="null" id="svg_18" fill="#2a2c45" d="m624.89096,161.35745c14.97202,0 27.10903,-12.68641 27.10903,-28.33573c0,-13.44301 -8.95945,-24.69169 -20.97539,-27.59802c-0.24577,-28.44376 -22.37812,-51.4237 -49.64892,-51.4237c-18.72282,0 -35.02242,10.83267 -43.48247,26.82736c-2.57414,-1.16437 -5.41144,-1.81259 -8.39443,-1.81259c-10.74609,0 -19.61498,8.37564 -20.97276,19.22065c-13.98305,2.89809 -24.52603,15.78754 -24.52603,31.25406c0,17.60047 13.65032,31.86797 30.48839,31.86797c4.69022,0 107.18924,0 110.40256,0z"/>
  <path stroke="null" id="svg_19" fill="#2a2c45" d="m216.24324,347.72359c18.09119,0 32.75675,-15.32942 32.75675,-34.23901c0,-16.24363 -10.826,-29.8358 -25.34527,-33.34761c-0.29697,-34.36955 -27.04024,-62.13698 -59.99244,-62.13698c-22.6234,0 -42.31877,13.08947 -52.54132,32.41639c-3.11042,-1.40695 -6.53883,-2.19021 -10.14326,-2.19021c-12.98486,0 -23.70144,10.12057 -25.34208,23.22495c-16.89619,3.50185 -29.63562,19.07661 -29.63562,37.76533c0,21.26724 16.49414,38.50713 36.84014,38.50713c5.66734,0 129.52034,0 133.4031,0z"/>
  <path stroke="null" id="svg_20" fill="#2a2c45" d="m564.31367,375.72359c10.87254,0 19.68632,-9.21275 19.68632,-20.57714c0,-9.76218 -6.50627,-17.93087 -15.23213,-20.04141c-0.17847,-20.6556 -16.25078,-37.34341 -36.05457,-37.34341c-13.59634,0 -25.43296,7.86658 -31.57656,19.48177c-1.86932,-0.84556 -3.92973,-1.31628 -6.09595,-1.31628c-7.80371,0 -14.24422,6.08231 -15.23022,13.95786c-10.15435,2.10456 -17.81057,11.46476 -17.81057,22.6964c0,12.7813 9.91273,23.14222 22.14038,23.14222c3.40599,0 77.83981,0 80.17329,0z"/>
 </g>
</svg>